    <svg class="burger svg" width="750" height="403" viewBox="0 0 850 403" fill="none" xmlns="http://www.w3.org/2000/svg">
        <g id="Frame 1">
        <path class="bottomBun" d="M71.8257 250.885C76.0914 240.238 86.8903 234 98.3601 234H740.308C752.278 234 763.395 240.813 767.606 252.018C780.354 285.936 779.78 312.769 767.993 340.055C763.605 350.214 753.092 356 742.025 356L422.207 356L99.0367 356C87.2127 356 76.1769 349.354 71.9576 338.308C60.4002 308.053 59.6797 281.201 71.8257 250.885Z" fill="url(#paint0_linear_4_31)"/>
        <path class="meat" d="M47 206C47 203.791 48.7909 202 51 202L783 202C785.209 202 787 203.791 787 206L787 257.25V257.25C787 262.635 782.635 267 777.25 267L776.863 267L63.2192 267L60.0694 266.549C53.4711 265.605 48.2115 260.555 47 254V254L47 206Z" fill="#684502"/>
        <path class="cheese" d="M47 203C47 199.134 50.134 196 54 196H780C783.866 196 787 199.134 787 203V218.055C787 221.019 785.133 223.662 782.339 224.652L763.412 231.362C736.683 240.838 707.526 240.944 680.73 231.661L658.549 223.978C656.755 223.356 654.779 223.537 653.127 224.474V224.474C629.534 237.857 600.697 238.083 576.897 225.071L574.677 223.857C573.648 223.295 572.495 223 571.324 223H522.084C520.657 223 519.264 223.441 518.097 224.263V224.263C508.534 231.002 495.767 231.002 486.204 224.263V224.263C485.037 223.441 483.645 223 482.217 223H421.447C419.879 223 418.357 223.526 417.124 224.494L406.419 232.9C399.226 238.547 389.119 238.597 381.871 233.02L370.737 224.452C369.513 223.511 368.012 223 366.468 223H313.528C311.936 223 310.392 223.542 309.15 224.538L301.303 230.827C292.737 237.693 280.604 237.871 271.84 231.26L262.762 224.412C261.547 223.496 260.067 223 258.546 223H222.772C221.198 223 219.671 223.53 218.435 224.505L208.967 231.977C203.779 236.072 196.433 235.98 191.348 231.756L182.753 224.616C181.496 223.572 179.914 223 178.28 223H165.214C162.643 223 160.279 224.409 159.056 226.671L155.656 232.96C154.505 235.09 151.436 235.049 150.341 232.89L147.273 226.835C146.08 224.483 143.666 223 141.029 223H132.654C130.205 223 128.001 224.485 127.08 226.754V226.754C125.051 231.76 117.963 231.76 115.933 226.754V226.754C115.013 224.485 112.809 223 110.36 223H98.2106C96.3684 223 94.7179 224.138 94.0633 225.86L93.7769 226.614C92.3245 230.435 86.8173 230.117 85.8132 226.155V226.155C85.343 224.299 83.6731 223 81.7589 223H62.178C61.0734 223 60.178 223.895 60.178 225V225V235.061C60.178 237.506 58.9013 239.775 56.8105 241.044L56.0188 241.525C54.5122 242.44 52.6352 242.493 51.0786 241.667L50.7162 241.474C48.4294 240.259 47 237.881 47 235.292L47 223L47 220.5L47 209.5V203Z" fill="#F4CA35"/>
        <path class="lettuce" d="M36 190.5C36 180.835 43.835 173 53.5 173H786.5C796.165 173 804 180.835 804 190.5V190.5C804 200.165 796.165 208 786.5 208H747.75C744.797 208 741.924 208.961 739.565 210.737L737.693 212.147C722.239 223.784 700.816 223.279 685.928 210.927V210.927C683.648 209.035 680.779 208 677.816 208H565.653C562.482 208 559.374 208.891 556.683 210.57V210.57C540.07 220.943 519.018 221.019 502.33 210.768L501.958 210.54C499.255 208.879 496.145 208 492.972 208H448.836C446.025 208 443.242 208.565 440.652 209.66L435.953 211.649C421.941 217.578 406.028 217.025 392.462 210.136V210.136C389.697 208.732 386.64 208 383.538 208H300.704H290.486C285.213 208 280.142 210.028 276.323 213.664L275.795 214.167C268.009 221.581 255.729 221.423 248.136 213.813V213.813C244.423 210.091 239.382 208 234.125 208H222.838C218.853 208 214.949 209.134 211.584 211.27L207.804 213.67C200.784 218.126 191.796 218.02 184.883 213.401L182.097 211.539C178.643 209.232 174.583 208 170.43 208H144.544H53.5C43.835 208 36 200.165 36 190.5V190.5Z" fill="#3DD355"/>
        <path class="topBun" d="M420.5 48C228.581 48 73 107.546 73 181H768C768 107.546 612.419 48 420.5 48Z" fill="url(#paint1_linear_4_31)"/>
        </g>
        <defs>
        <linearGradient id="paint0_linear_4_31" x1="420" y1="234" x2="420" y2="356" gradientUnits="userSpaceOnUse">
        <stop stop-color="#FBF577"/>
        <stop offset="0.99922" stop-color="#F0E051"/>
        </linearGradient>
        <linearGradient id="paint1_linear_4_31" x1="420.5" y1="48" x2="420.5" y2="181" gradientUnits="userSpaceOnUse">
        <stop stop-color="#EBEF18"/>
        <stop offset="1" stop-color="#F8FB77" stop-opacity="0.98"/>
        </linearGradient>
        </defs>
    </svg>
